<svg width="57" height="47" viewBox="0 0 57 47" fill="none" xmlns="http://www.w3.org/2000/svg">
<path d="M0.860898 21.8623C6.69213 18.6644 13.2014 15.9954 19.2833 13.3127C29.7466 8.91871 40.2515 4.60088 50.8624 0.581032C52.9269 -0.103911 56.6363 -0.773749 57 2.27228C56.8009 6.58391 55.9816 10.8703 55.4196 15.1567C53.9931 24.5828 52.3445 33.9767 50.7368 43.3718C50.1829 46.5012 46.2453 48.1213 43.7258 46.1186C37.6709 42.0466 31.5694 38.0143 25.5918 33.848C23.6337 31.867 25.4495 29.0223 27.1983 27.6077C32.1853 22.7146 37.4741 18.5574 42.2005 13.4114C43.4754 10.3461 39.7084 12.9295 38.4659 13.721C31.6386 18.4051 24.9785 23.3752 17.7804 27.4918C14.1037 29.5069 9.81832 27.7849 6.14322 26.6604C2.84801 25.3021 -1.98033 23.9334 0.860898 21.8623Z" fill="white"/>
</svg>
