<svg width="73" height="43" viewBox="0 0 73 43" fill="none" xmlns="http://www.w3.org/2000/svg">
<path d="M70.687 41.2506C68.16 42.8336 57.88 43.3046 55.392 41.4966C54.027 40.5056 52.779 39.2646 51.593 38.0846C50.765 37.2586 49.823 36.8576 49.111 35.9616C48.531 35.2276 48.132 34.3626 47.519 33.6406C46.486 32.4256 44.894 31.3926 43.634 32.8766C41.739 35.1076 43.933 39.4936 41.405 41.1616C40.557 41.7216 39.702 41.8836 38.643 41.8036L36.297 41.9106C34.918 41.9376 32.735 41.9496 31.168 41.6666C29.418 41.3516 27.975 40.3956 26.395 39.6936C23.393 38.3626 20.532 36.5486 18.356 34.0356C12.434 27.1926 4.47898 17.7806 1.38898 9.17658C0.751978 7.40858 -0.925022 3.90958 0.665978 2.39258C2.82998 0.820578 13.455 0.375578 15.111 2.80858C15.785 3.79558 16.209 5.24458 16.685 6.36358C17.277 7.75958 17.599 9.07658 18.525 10.3126C19.345 11.4096 19.951 12.5116 20.586 13.7146C21.299 15.0636 21.971 16.3576 22.838 17.6006C23.426 18.4456 24.981 20.1246 25.963 20.2506C28.361 20.5576 28.211 14.7296 28.033 13.3056C27.863 11.9346 27.818 10.4806 27.863 9.08958C27.902 7.90358 28.009 6.23258 27.306 5.26358C26.161 3.68358 23.611 4.86658 23.411 2.74358C23.833 2.14058 23.743 1.60558 26.557 0.679578C28.772 -0.0494216 30.203 -0.0264223 31.664 0.0905777C34.644 0.329578 37.803 -0.477422 40.678 0.488578C43.424 1.41358 43 5.31658 42.908 7.65658C42.785 10.8516 42.916 13.9686 42.908 17.2096C42.904 18.6866 42.846 20.1216 44.644 20.0026C46.332 19.8896 46.503 18.4706 47.308 17.2986C48.429 15.6656 49.456 14.0106 50.597 12.3826C52.134 10.1836 52.597 7.71258 54.044 5.45958C54.562 4.65258 55.007 2.89158 55.804 2.25458C56.408 1.77358 57.554 1.97958 58.284 1.97958H60.02C61.35 1.99558 62.706 2.01458 64.071 2.06258C66.038 2.13058 68.241 1.70358 70.192 1.97858C78.608 3.16658 59.614 21.1696 60.602 24.3816C61.286 26.5996 65.618 29.0846 67.182 30.9026C69.267 33.3206 75.658 38.1396 70.687 41.2506Z" fill="white"/>
</svg>
