<svg width="492" height="496" viewBox="0 0 492 496" fill="none" xmlns="http://www.w3.org/2000/svg">
<path d="M491.902 238.87C491.802 282.17 482.402 320.37 463.402 355.87C445.502 389.37 420.802 417.27 389.702 439.27C362.402 458.57 332.502 471.77 299.802 478.57C263.602 486.07 227.402 485.27 191.502 476.67C172.502 472.07 154.302 465.07 137.202 455.77C134.302 454.17 131.802 454.07 128.702 455.07C91.0021 467.17 53.3021 479.17 15.6021 491.17C11.3021 492.57 7.1021 493.87 2.8021 495.47C-0.1979 496.57 -0.3979 495.47 0.4021 492.97C4.8021 480.07 9.1021 467.17 13.5021 454.17C22.9021 426.07 32.3021 397.97 41.9021 369.97C43.2021 366.27 41.3021 363.87 39.8021 361.27C28.0021 340.77 19.6021 318.97 14.4021 295.97C3.1021 246.37 7.1021 197.77 26.1021 150.67C37.1021 123.47 52.8021 99.0698 72.9021 77.4698C98.5021 49.8698 128.802 29.5698 163.802 15.9698C196.502 3.26983 230.302 -1.63017 265.102 0.469834C312.802 3.36983 356.202 19.1698 394.302 47.9698C443.602 85.1698 474.602 134.07 487.002 194.77C490.302 210.27 491.502 225.97 491.902 238.87ZM248.402 40.9698C239.102 40.5698 228.202 41.6698 217.302 43.2698C213.002 43.8698 208.802 44.7698 204.602 45.8698C139.602 62.3698 92.9021 101.17 65.4021 162.27C49.5021 197.57 45.2021 234.87 51.2021 273.07C55.9021 303.27 67.1021 331.07 84.6021 356.17C86.5021 358.97 86.8021 361.37 85.7021 364.47C78.3021 386.17 71.1021 407.97 63.8021 429.77C63.4021 430.97 62.2021 432.37 63.3021 433.47C64.4021 434.67 65.8021 433.37 67.0021 432.97C88.9021 425.97 110.802 419.07 132.502 411.77C137.502 410.07 141.102 410.87 145.402 413.47C194.502 442.97 247.002 450.77 302.302 436.07C344.302 424.97 378.902 402.07 406.302 368.27C432.802 335.57 447.602 298.17 450.602 256.37C452.902 224.27 447.902 193.07 435.102 163.27C419.002 125.77 393.902 95.7698 360.002 73.4698C326.802 51.6698 290.102 40.4698 248.402 40.9698Z" fill="white"/>
<path d="M129.002 183.77C129.402 161.27 138.202 142.77 155.402 128.37C160.302 124.27 166.202 122.57 172.702 123.67C175.502 124.07 178.402 124.47 181.102 124.17C187.902 123.67 191.802 127.47 193.902 133.07C200.302 149.87 206.502 166.77 212.802 183.57C214.002 186.77 213.702 189.67 212.202 192.67C208.302 200.77 202.102 207.07 195.902 213.37C190.502 218.87 190.202 220.67 193.902 227.37C211.802 259.77 236.502 284.97 270.702 300.27C272.402 300.97 273.902 302.17 275.502 302.87C279.802 304.97 283.702 304.77 287.302 301.07C294.302 293.97 300.802 286.37 307.102 278.57C312.002 272.47 314.302 271.57 321.202 274.67C338.002 282.47 354.002 291.57 370.302 300.37C375.702 303.27 376.302 307.27 375.502 314.57C372.202 344.27 349.502 357.77 323.602 362.07C314.902 363.47 306.702 362.67 298.502 360.07C274.502 352.47 250.902 343.67 229.702 329.87C209.902 316.97 192.902 300.87 178.002 282.57C163.502 264.67 150.602 245.77 139.902 225.27C133.902 213.57 129.002 195.37 129.002 183.77Z" fill="white"/>
</svg>
