<svg id="Слой_1" data-name="Слой 1" xmlns="http://www.w3.org/2000/svg" viewBox="0 0 1882.56615 535.77906"><defs><style>.cls-1{fill:none;}.cls-2{fill:#ac9271;}.cls-3{fill:#fff;}</style></defs><rect class="cls-1" width="1882.56615" height="535.77906"/><polygon class="cls-2" points="110.597 248.939 271.37 91.403 428.907 248.939 384.667 285.626 297.267 196.067 250.869 243.544 338.269 332.023 263.817 401.08 110.597 248.939"/><polygon class="cls-3" points="569.179 243.544 408.405 401.08 250.869 243.544 297.267 196.067 384.667 285.626 427.61 247.627 341.506 160.46 415.959 91.403 569.179 243.544"/><path class="cls-3" d="M276.09474,339.5061V284.31133q0-7.53682,7.865-7.53682,7.81377,0,7.813,7.53682v20.579h32.83487v-20.579q0-7.53682,7.86333-7.53682,7.865,0,7.865,7.53682V339.5061a7.31411,7.31411,0,0,1-2.11942,5.45307,8.95,8.95,0,0,1-11.48944,0,7.3079,7.3079,0,0,1-2.11943-5.45307v-21.194H291.77265v21.194a7.31412,7.31412,0,0,1-2.11943,5.45307,8.88063,8.88063,0,0,1-11.439,0A7.31412,7.31412,0,0,1,276.09474,339.5061Z" transform="translate(313.76102 89.29651)"/><path class="cls-3" d="M347.63678,337.03962l21.03987-52.82316q3.21572-8.05693,11.18225-8.06021,8.06976,0,11.18388,8.06021l20.52789,52.82316a10.18681,10.18681,0,0,1,.81754,3.60485,5.74012,5.74012,0,0,1-2.14543,4.59929,7.61234,7.61234,0,0,1-5.05477,1.80243q-5.92433,0-7.66017-5.02782l-3.11413-9.14952h-29.108l-3.11413,9.05465q-1.73829,5.1227-7.55777,5.12269a8.08728,8.08728,0,0,1-5.43835-1.94309,6.11216,6.11216,0,0,1-2.27383-4.83809A23.3652,23.3652,0,0,1,347.63678,337.03962Zm32.12135-45.70832-9.95838,28.16493H389.6645l-9.7032-28.16493Z" transform="translate(313.76102 89.29651)"/><path class="cls-3" d="M429.85235,339.5061V290.713h-11.387a7.29365,7.29365,0,0,1-5.20918-1.82532,6.36108,6.36108,0,0,1-1.939-4.861,6.25828,6.25828,0,0,1,2.06741-4.73995,7.13964,7.13964,0,0,1,5.08078-1.94309h38.452a7.20158,7.20158,0,0,1,5.13278,1.894,6.29926,6.29926,0,0,1,2.017,4.789,6.37726,6.37726,0,0,1-1.91463,4.91006,7.40126,7.40126,0,0,1-5.23518,1.77625h-11.387V339.5061a7.31412,7.31412,0,0,1-2.11943,5.45307,8.88063,8.88063,0,0,1-11.439,0A7.31412,7.31412,0,0,1,429.85235,339.5061Z" transform="translate(313.76102 89.29651)"/><path class="cls-3" d="M514.54492,344.95917a8.95422,8.95422,0,0,1-11.46506.0229,7.33586,7.33586,0,0,1-2.09342-5.476V318.40693h-.25518l-23.18367,26.127a8.37175,8.37175,0,0,1-11.64222.3075,7.01241,7.01241,0,0,1-2.29822-5.24045,6.1152,6.1152,0,0,1,2.09343-4.3147L483.52229,317.648q-8.52808-1.28067-13.68526-5.73766a15.96827,15.96827,0,0,1-5.66914-12.61371q0-21.953,26.04425-21.953H508.5946q8.06974,0,8.06812,7.58589V339.5061A7.31922,7.31922,0,0,1,514.54492,344.95917ZM490.21214,290.713a10.40517,10.40517,0,0,0-6.997,2.231,8.75576,8.75576,0,0,0-.07639,12.6824,10.4817,10.4817,0,0,0,7.07342,2.29965h10.7743V290.713Z" transform="translate(313.76102 89.29651)"/><path class="cls-3" d="M564.0524,315.3222l-27.11534,27.17049q-4.54686,4.55351-7.91535,4.5535a9.46376,9.46376,0,0,1-5.76991-1.6585,5.91923,5.91923,0,0,1-2.503-5.02781q0-3.0324,4.494-7.39616l24.154-23.37592L529.63446,291.521q-5.10759-4.64673-5.10678-7.77562a6.42252,6.42252,0,0,1,2.19582-5.00492,7.95622,7.95622,0,0,1,5.51473-1.966,8.51619,8.51619,0,0,1,6.0771,2.702l25.73707,25.41387V283.93514a6.69432,6.69432,0,0,1,2.14543-5.21755,9.31284,9.31284,0,0,1,11.387,0,6.69433,6.69433,0,0,1,2.14544,5.21755v20.95524l25.73543-25.41387a8.519,8.519,0,0,1,6.0771-2.702,8.06643,8.06643,0,0,1,5.46435,1.94308,6.33905,6.33905,0,0,1,2.2462,5.02782q0,3.12563-5.10515,7.77562L594.38588,309.5878l24.154,23.37592q4.39081,4.26889,4.39163,7.39616a5.93593,5.93593,0,0,1-2.40061,5.02781,9.33216,9.33216,0,0,1-5.76991,1.6585q-3.42294,0-7.96736-4.5535L579.73031,315.3222v24.75308a6.31686,6.31686,0,0,1-2.27384,5.02782,9.09519,9.09519,0,0,1-11.20826.0229,6.38156,6.38156,0,0,1-2.19581-5.05072Z" transform="translate(313.76102 89.29651)"/><path class="cls-3" d="M627.42392,339.5061V284.31133q0-7.53682,7.865-7.53682,7.81376,0,7.813,7.53682v20.579h32.83486v-20.579q0-7.53682,7.86334-7.53682,7.865,0,7.865,7.53682V339.5061a7.31412,7.31412,0,0,1-2.11943,5.45307,8.95,8.95,0,0,1-11.48944,0,7.3079,7.3079,0,0,1-2.11943-5.45307v-21.194H643.10183v21.194a7.31412,7.31412,0,0,1-2.11943,5.45307,8.88064,8.88064,0,0,1-11.43906,0A7.31411,7.31411,0,0,1,627.42392,339.5061Z" transform="translate(313.76102 89.29651)"/><path class="cls-3" d="M707.64683,276.77451q7.865,0,7.865,7.53682v15.934h11.59184a31.36141,31.36141,0,0,1,10.16155,1.56363,23.62571,23.62571,0,0,1,11.74461,8.299,21.59829,21.59829,0,0,1,4.23886,13.18289,20.93046,20.93046,0,0,1-7.81295,16.9742q-7.45538,6.212-18.94482,6.212H707.954a8.34719,8.34719,0,0,1-5.9487-2.03795,7.24418,7.24418,0,0,1-2.17144-5.54794V284.31133Q699.83388,276.77451,707.64683,276.77451Zm18.53686,56.89906a10.72074,10.72074,0,0,0,7.78857-2.89173,9.84658,9.84658,0,0,0,2.98735-7.39616,9.97269,9.97269,0,0,0-2.963-7.42233,10.65732,10.65732,0,0,0-7.81295-2.91463h-10.6719v20.62485Zm36.35858,11.2398a8.7715,8.7715,0,0,0,11.413.0458,7.31412,7.31412,0,0,0,2.11943-5.45307V284.31133q0-7.53682-7.86334-7.53682a7.85194,7.85194,0,0,0-5.71953,2.08374,7.26988,7.26988,0,0,0-2.14543,5.45308V339.5061A7.21842,7.21842,0,0,0,762.54227,344.91337Z" transform="translate(313.76102 89.29651)"/><path class="cls-3" d="M784.29565,339.17571V285.78336q0-8.43966,8.17053-8.43967H818.408a7.72105,7.72105,0,0,1,5.30994,1.84823,6.52415,6.52415,0,0,1-.05038,9.6271,7.6653,7.6653,0,0,1-5.25956,1.894H799.97356v14.17734h17.15859a8.375,8.375,0,0,1,5.56512,1.75662,6.13086,6.13086,0,0,1,2.09342,4.97875,6.01425,6.01425,0,0,1-2.19582,4.83482,8.19031,8.19031,0,0,1-5.46272,1.85149H799.97356v14.74652H819.328a7.79537,7.79537,0,0,1,5.36033,1.84822,6.2019,6.2019,0,0,1,2.095,4.88389,6.09355,6.09355,0,0,1-2.14543,4.81192,7.78273,7.78273,0,0,1-5.31,1.87439H792.3654a8.3838,8.3838,0,0,1-5.77153-2.03795A6.71862,6.71862,0,0,1,784.29565,339.17571Z" transform="translate(313.76102 89.29651)"/><path class="cls-3" d="M938.25805,276.77451q7.81133,0,7.81133,7.53682V339.5061a7.318,7.318,0,0,1-2.11618,5.45307,8.88064,8.88064,0,0,1-11.43905,0,7.3079,7.3079,0,0,1-2.11943-5.45307V290.14386H900.674V339.5061a7.32031,7.32031,0,0,1-2.11943,5.45307,8.88064,8.88064,0,0,1-11.439,0,7.3079,7.3079,0,0,1-2.11943-5.45307V284.31133q0-7.53682,7.86334-7.53682Z" transform="translate(313.76102 89.29651)"/><path class="cls-3" d="M989.989,347.66117q-16.0371,0-26.249-10.71641-9.7032-10.14233-9.70321-25.03441,0-15.36315,10.00877-25.5578,10.0104-10.1963,25.94348-10.1963,15.77868,0,26.093,10.67062a34.70236,34.70236,0,0,1,9.90474,25.08348q0,15.07854-9.804,25.22413Q1006.07485,347.66445,989.989,347.66117Zm0-13.41842q9.64958,0,14.95951-7.0167,4.70046-6.212,4.70045-15.3157,0-14.843-11.08148-20.48419a18.66552,18.66552,0,0,0-8.57848-1.85149q-9.49842,0-14.96277,7.06577-4.70045,6.11875-4.70044,15.26991,0,9.43574,4.90524,15.55123Q980.63847,334.24275,989.989,334.24275Z" transform="translate(313.76102 89.29651)"/><path class="cls-3" d="M1044.57723,339.5061V290.713h-11.387a7.29507,7.29507,0,0,1-5.2108-1.82532,6.35637,6.35637,0,0,1-1.94065-4.861,6.25825,6.25825,0,0,1,2.06742-4.73995,7.14742,7.14742,0,0,1,5.084-1.94309h38.452a7.19364,7.19364,0,0,1,5.12954,1.894,6.29492,6.29492,0,0,1,2.01865,4.789,6.3715,6.3715,0,0,1-1.91463,4.91006,7.39978,7.39978,0,0,1-5.23356,1.77625h-11.39029V339.5061a7.318,7.318,0,0,1-2.11618,5.45307,8.88064,8.88064,0,0,1-11.439,0A7.3079,7.3079,0,0,1,1044.57723,339.5061Z" transform="translate(313.76102 89.29651)"/><path class="cls-3" d="M1116.93681,347.66117q-16.0371,0-26.249-10.71641-9.7032-10.14233-9.7032-25.03441,0-15.36315,10.00876-25.5578,10.0104-10.1963,25.94348-10.1963,15.77868,0,26.093,10.67062a34.70237,34.70237,0,0,1,9.90475,25.08348q0,15.07854-9.804,25.22413Q1133.02268,347.66445,1116.93681,347.66117Zm0-13.41842q9.64958,0,14.95952-7.0167,4.70044-6.212,4.70044-15.3157,0-14.843-11.08148-20.48419a18.66549,18.66549,0,0,0-8.57848-1.85149q-9.4984,0-14.96276,7.06577-4.70045,6.11875-4.70045,15.26991,0,9.43574,4.90524,15.55123Q1107.58629,334.24275,1116.93681,334.24275Z" transform="translate(313.76102 89.29651)"/><path class="cls-3" d="M1206.9637,276.77451q7.865,0,7.86334,7.53682V339.5061a7.3079,7.3079,0,0,1-2.11943,5.45307,8.88064,8.88064,0,0,1-11.439,0,7.32031,7.32031,0,0,1-2.11943-5.45307V290.14386h-18.22967l-.10077,24.94281v1.3739a50.10242,50.10242,0,0,1-2.80857,17.68732q-4.8516,12.80179-16.13625,12.80343h-.104a7.50483,7.50483,0,0,1-5.9227-2.41741,6.84949,6.84949,0,0,1-1.78786-4.64836v-.615a7.28708,7.28708,0,0,1,2.399-5.12268,5.26265,5.26265,0,0,1,1.58307-.99444q.71676-.09324,2.09667-.37946,5.30994-1.0893,5.30832-12.8983v-.37946l-.20479-35.1849a7.31956,7.31956,0,0,1,2.09667-5.49887,7.9232,7.9232,0,0,1,5.76991-2.03795Z" transform="translate(313.76102 89.29651)"/><path class="cls-3" d="M1224.631,340.07528V283.93514a6.69433,6.69433,0,0,1,2.14544-5.21755,9.31286,9.31286,0,0,1,11.387,0,6.69432,6.69432,0,0,1,2.14543,5.21755v20.95524l25.73544-25.41387a8.52248,8.52248,0,0,1,6.07872-2.702,8.08544,8.08544,0,0,1,5.56513,1.94308,6.40586,6.40586,0,0,1,2.19744,5.02782q0,3.08146-5.15879,7.77562l-19.76073,18.06677,24.15236,23.37592q4.39326,4.26889,4.39164,7.39616,0,6.68795-8.17215,6.68631-3.3693,0-7.91209-4.5535l-27.117-27.17049v24.75308a6.37772,6.37772,0,0,1-2.19744,5.05072,8.22349,8.22349,0,0,1-5.61713,1.92019,8.31822,8.31822,0,0,1-5.63989-1.92019A6.34783,6.34783,0,0,1,1224.631,340.07528Z" transform="translate(313.76102 89.29651)"/><path class="cls-3" d="M1347.61955,344.95917a8.88066,8.88066,0,0,1-11.43906,0,7.31808,7.31808,0,0,1-2.11617-5.45307V303.281h-.20479l-33.19244,40.58891a8.94258,8.94258,0,0,1-2.98736,2.18189,8.34853,8.34853,0,0,1-3.60172.99444,7.75846,7.75846,0,0,1-5.6919-2.087,7.30793,7.30793,0,0,1-2.11943-5.45307V284.31133q0-7.53682,7.81133-7.53682,7.865,0,7.86333,7.53682v36.70274h.20479l33.14368-41.06324a8.06788,8.06788,0,0,1,6.58583-3.17632q7.865,0,7.86334,7.53682V339.5061A7.30793,7.30793,0,0,1,1347.61955,344.95917Z" transform="translate(313.76102 89.29651)"/><path class="cls-3" d="M367.03415,199.59685a52.45206,52.45206,0,0,1-16.67658-2.34824,37.86238,37.86238,0,0,1-12.074-6.55435,35.89982,35.89982,0,0,1-8.26171-9.70679,66.25368,66.25368,0,0,1-5.08048-10.97232L270.499,24.4235h62.067l34.46821,109.03506L401.50083,24.4235h62.067L409.1024,170.08106a61.3263,61.3263,0,0,1-5.2076,10.98094,38.76381,38.76381,0,0,1-8.17747,9.59852,36.65936,36.65936,0,0,1-12.00659,6.58809A52.50525,52.50525,0,0,1,367.03415,199.59685ZM284.1827,34.06439,333.753,166.63206a56.80892,56.80892,0,0,0,4.35754,9.42826,26.38916,26.38916,0,0,0,6.08064,7.12945,28.60571,28.60571,0,0,0,9.121,4.906,51.54059,51.54059,0,0,0,27.44407,0,27.403,27.403,0,0,0,8.9678-4.86752,29.23505,29.23505,0,0,0,6.16488-7.2338,51.79624,51.79624,0,0,0,4.402-9.29646L449.88407,34.06439H408.34424L374.29417,141.78528a10.072,10.072,0,0,1-3.02961,5.07857,5.95714,5.95714,0,0,1-8.46235,0,10.06808,10.06808,0,0,1-3.0342-5.10054L325.72253,34.06439Zm80.796,105.69825Z" transform="translate(313.76102 89.29651)"/><path class="cls-3" d="M367.03415,202.81048a55.48716,55.48716,0,0,1-17.663-2.51064,40.98157,40.98157,0,0,1-13.05883-7.10514,39.07979,39.07979,0,0,1-8.98771-10.56668,69.40585,69.40585,0,0,1-5.32861-11.5074L265.93771,21.20987h68.90885l32.18759,101.81852L399.22021,21.20987h68.90886L412.03092,171.23046a64.27039,64.27039,0,0,1-5.468,11.52152,41.91978,41.91978,0,0,1-8.84833,10.38623,39.7445,39.7445,0,0,1-13.01748,7.16163A55.547,55.547,0,0,1,367.03415,202.81048ZM275.0602,27.63713l52.80971,141.22862A63.236,63.236,0,0,0,332.716,179.343a32.72994,32.72994,0,0,0,7.53571,8.84846,34.7631,34.7631,0,0,0,11.09067,6.00594,57.41693,57.41693,0,0,0,31.38347,0,33.54384,33.54384,0,0,0,10.99264-6.01378,35.57649,35.57649,0,0,0,7.50814-8.81,58.02966,58.02966,0,0,0,4.93037-10.398L459.00657,27.63713H403.78146l-36.74731,116.2516L330.28531,27.63713Zm91.974,165.53247a46.47389,46.47389,0,0,1-14.70688-2.02264,31.72364,31.72364,0,0,1-10.10735-5.45674,29.58421,29.58421,0,0,1-6.80665-7.98935,60.32427,60.32427,0,0,1-4.60566-9.96256L279.62145,30.85076h48.38171l34.7485,109.92241c.71069,2.31921,1.4857,3.15243,2.008,3.58a2.96656,2.96656,0,0,0,4.54747-.00079,7.07222,7.07222,0,0,0,1.9942-3.52824L406.06361,30.85076h48.38171l-51.226,136.99661a54.9211,54.9211,0,0,1-4.66233,9.837,32.415,32.415,0,0,1-6.83575,8.02151,30.48014,30.48014,0,0,1-9.97869,5.44026A46.49947,46.49947,0,0,1,367.03415,193.1696ZM288.744,37.278l47.93753,128.20463a53.82939,53.82939,0,0,0,4.12473,8.9332,23.20258,23.20258,0,0,0,5.35311,6.27112,25.5457,25.5457,0,0,0,8.13764,4.35754,48.62637,48.62637,0,0,0,25.47438,0,24.32618,24.32618,0,0,0,7.95538-4.294,26.09866,26.09866,0,0,0,5.494-6.44451,48.6653,48.6653,0,0,0,4.12473-8.7143L445.32282,37.278h-34.698l-33.347,105.49739a13.19017,13.19017,0,0,1-4.04968,6.59359,8.99845,8.99845,0,0,1-12.38951.00079,13.07682,13.07682,0,0,1-4.06346-6.64459L323.44191,37.278Z" transform="translate(313.76102 89.29651)"/><path class="cls-3" d="M593.07481,197.72642H522.21923a70.017,70.017,0,0,1-21.20261-3.60984,49.91327,49.91327,0,0,1-19.697-11.49484,46.27259,46.27259,0,0,1-10.82722-15.7292,94.16914,94.16914,0,0,1-5.64719-18.25241,135.02524,135.02524,0,0,1-2.44451-18.92793c-.35994-6.21071-.5422-12.16644-.5422-17.70163,0-6.61085.219-13.44138.651-20.30094A133.13715,133.13715,0,0,1,465.4012,71.189a77.02765,77.02765,0,0,1,6.86332-18.97187,48.90437,48.90437,0,0,1,12.803-15.54483,43.54759,43.54759,0,0,1,12.42932-7.16711,78.74376,78.74376,0,0,1,12.06326-3.47568,75.54261,75.54261,0,0,1,10.1533-1.36516c3.03573-.16633,4.863-.24087,5.93207-.24087H617.6884V72.87586H547.47917c-10.30493,0-17.45773,3.66868-21.86428,11.21474a31.62855,31.62855,0,0,0-3.95625,12.71879c-.48247,5.10681-.72753,9.90607-.72753,14.266,0,4.363.24506,9.1623.72753,14.26519a33.31294,33.31294,0,0,0,4.212,13.257c2.08916,3.48588,4.503,5.85922,7.10378,6.93645a25.35664,25.35664,0,0,0,9.79489,1.86965h14.55679a22.72315,22.72315,0,0,0,3.46459-.29579,2.0121,2.0121,0,0,0,1.23757-.75319,3.66226,3.66226,0,0,0,.93583-1.96066,26.51608,26.51608,0,0,0,.35994-4.32773V101.57883h57.78909v66.77773c0,6.428-1.10432,11.38657-3.37728,15.15724a36.82381,36.82381,0,0,1-5.37149,7.28167l-.12253.11454C607.23643,195.4331,600.78666,197.72642,593.07481,197.72642Zm-67.42929-163.662c-.8715,0-2.64362.07453-5.4205.22674a66.29783,66.29783,0,0,0-8.89122,1.20668,69.47519,69.47519,0,0,0-10.6327,3.07241,34.26377,34.26377,0,0,0-9.79183,5.66072,39.4323,39.4323,0,0,0-10.35088,12.54068,67.25752,67.25752,0,0,0-5.98262,16.56557,122.97,122.97,0,0,0-2.67425,18.99461c-.41967,6.65322-.63257,13.27427-.63257,19.67877,0,5.34533.17767,11.10883.52688,17.132a124.83616,124.83616,0,0,0,2.26531,17.54315,84.34229,84.34229,0,0,0,5.0575,16.35294,36.76043,36.76043,0,0,0,8.60787,12.52107,40.6992,40.6992,0,0,0,16.09456,9.35451,60.91136,60.91136,0,0,0,18.39816,3.17127h70.85558c5.3914,0,9.60343-1.42166,12.87657-4.34656a28.52758,28.52758,0,0,0,3.777-5.28962c1.29118-2.14268,1.9743-5.63327,1.9743-10.0928V111.21972h-38.9682v28.84655a36.53,36.53,0,0,1-.49319,5.94945,13.35184,13.35184,0,0,1-3.34972,6.93566,11.278,11.278,0,0,1-6.68411,3.68751,31.878,31.878,0,0,1-4.88136.40563H542.76935a34.50024,34.50024,0,0,1-13.32993-2.57577c-4.5-1.86494-8.42407-5.54853-11.65738-10.94563a43.19968,43.19968,0,0,1-5.491-17.25521c-.51157-5.40888-.77042-10.5204-.77042-15.19256,0-4.669.25885-9.78054.77042-15.19412a41.41953,41.41953,0,0,1,5.21986-16.68953C523.70339,68.58657,533.777,63.235,547.47917,63.235H608.278V34.06439Z" transform="translate(313.76102 89.29651)"/><path class="cls-3" d="M593.07481,200.94005H522.21923a73.0776,73.0776,0,0,1-22.13845-3.75577,53.02288,53.02288,0,0,1-20.91159-12.22215,49.38575,49.38575,0,0,1-11.55323-16.786,97.52035,97.52035,0,0,1-5.84323-18.88556A138.2845,138.2845,0,0,1,459.27,129.90207c-.36453-6.27034-.54833-12.2904-.54833-17.8915,0-6.67989.22056-13.57946.65708-20.50806A136.42165,136.42165,0,0,1,462.344,70.4727a80.26563,80.26563,0,0,1,7.15586-19.77449,52.09335,52.09335,0,0,1,13.63167-16.55536A46.55625,46.55625,0,0,1,496.4278,26.4838a81.87829,81.87829,0,0,1,12.54114-3.61062,78.683,78.683,0,0,1,10.57143-1.41773c3.146-.17183,4.9702-.24558,6.10515-.24558h95.17969V76.08949h-73.346c-9.23584,0-15.3272,3.06691-19.17317,9.65108a28.28617,28.28617,0,0,0-3.52433,11.37716c-.47328,5.00874-.71374,9.70443-.71374,13.95762,0,4.25634.24046,8.952.71221,13.95528a30.083,30.083,0,0,0,3.80921,11.964c1.68482,2.80722,3.62235,4.75689,5.56142,5.5603a22.32839,22.32839,0,0,0,8.61858,1.63506h14.55679a18.75394,18.75394,0,0,0,2.51037-.1883,1.06656,1.06656,0,0,0,.03676-.15221,23.18716,23.18716,0,0,0,.314-3.78323V98.3652H624.25v69.99136c0,7.04315-1.25748,12.55323-3.84444,16.84565a39.79155,39.79155,0,0,1-5.88459,7.92659l-.16542.15535C608.72213,198.37605,601.57393,200.94005,593.07481,200.94005ZM525.64552,27.63713c-1.00476,0-2.78147.073-5.76512.23616a72.39843,72.39843,0,0,0-9.729,1.3126,75.65574,75.65574,0,0,0-11.58845,3.34151,40.37767,40.37767,0,0,0-11.53638,6.65479,45.77021,45.77021,0,0,0-11.9974,14.55234,73.796,73.796,0,0,0-6.56924,18.17,129.765,129.765,0,0,0-2.81976,20.013c-.42733,6.79051-.64483,13.55043-.64483,20.093,0,5.47478.18074,11.36617.53608,17.511a131.86324,131.86324,0,0,0,2.38478,18.46581,90.999,90.999,0,0,0,5.45113,17.61925A43.00825,43.00825,0,0,0,483.441,180.25389a46.84849,46.84849,0,0,0,18.51,10.795,66.9674,66.9674,0,0,0,20.26831,3.46391h70.85558c6.92611,0,12.67745-2.02264,17.09166-6.013l.08424-.07845a34.52612,34.52612,0,0,0,4.81551-6.59595c1.959-3.24815,2.91013-7.65355,2.91013-13.46883v-63.5641H566.46089v35.27381a29.80991,29.80991,0,0,1-.40436,4.86673,6.87,6.87,0,0,1-1.743,3.62318,5.12414,5.12414,0,0,1-3.05105,1.72842,25.77074,25.77074,0,0,1-3.93633.33266H542.76935a28.4208,28.4208,0,0,1-10.97579-2.1058c-3.23025-1.33849-6.12506-4.10883-8.59561-8.23257a36.68266,36.68266,0,0,1-4.66234-14.63c-.49166-5.20724-.74132-10.11085-.74132-14.57353,0-4.45953.24966-9.36314.74285-14.57587a34.78762,34.78762,0,0,1,4.36673-14.02432c4.9702-8.51345,13.23191-12.81293,24.5753-12.81293h67.07241V27.63713Zm67.42929,163.662H522.21923a63.97391,63.97391,0,0,1-19.334-3.31719,43.86775,43.86775,0,0,1-17.30916-10.08182,39.917,39.917,0,0,1-9.33233-13.57789,87.639,87.639,0,0,1-5.25509-16.98688,128.101,128.101,0,0,1-2.32351-18.00291c-.35381-6.09224-.533-11.92087-.533-17.3219,0-6.472.21443-13.16285.6387-19.88589a126.1971,126.1971,0,0,1,2.74777-19.5046,70.48174,70.48174,0,0,1,6.27517-17.3674,42.67115,42.67115,0,0,1,11.181-13.55122A37.314,37.314,0,0,1,499.632,35.54881a72.52919,72.52919,0,0,1,11.11058-3.20735,69.35054,69.35054,0,0,1,9.31089-1.25925c2.88256-.1577,4.65927-.23145,5.592-.23145h85.76925V66.4486h-63.9356c-12.52276,0-21.70039,4.84241-27.27559,14.39307a38.10442,38.10442,0,0,0-4.78947,15.3479c-.50238,5.30845-.75663,10.31641-.75663,14.88578,0,4.57252.25425,9.58048.7551,14.88265a40.11827,40.11827,0,0,0,5.08814,15.96144c2.83048,4.72159,6.24759,7.96738,10.115,9.57027a31.44985,31.44985,0,0,0,12.15363,2.34118h14.55679a28.78662,28.78662,0,0,0,4.40808-.36875,8.12664,8.12664,0,0,0,4.86911-2.70993,10.17025,10.17025,0,0,0,2.54713-5.2802,33.35219,33.35219,0,0,0,.44724-5.40574V108.00609h45.24183v60.35047c0,5.128-.821,9.09168-2.44145,11.78121a32.41242,32.41242,0,0,1-4.26411,5.90943l-.121.11377C604.144,189.6186,599.25807,191.29916,593.07481,191.29916ZM525.64552,37.278c-.79645,0-2.564.07453-5.25355.222a63.23276,63.23276,0,0,0-8.46695,1.15412,66.33889,66.33889,0,0,0-10.15636,2.93824,31.13221,31.13221,0,0,0-8.90041,5.14839,36.33908,36.33908,0,0,0-9.54523,11.549,63.98946,63.98946,0,0,0-5.68854,15.76294,119.52978,119.52978,0,0,0-2.60227,18.487c-.41508,6.58495-.62645,13.13617-.62645,19.47085,0,5.27471.17614,10.97467.52076,16.94138a121.7199,121.7199,0,0,0,2.20558,17.081,81.11241,81.11241,0,0,0,4.86145,15.72057,33.5768,33.5768,0,0,0,7.85429,11.43836,37.70677,37.70677,0,0,0,14.90753,8.65467,57.87666,57.87666,0,0,0,17.46386,3.02533h70.85558c4.56125,0,8.07944-1.14392,10.74757-3.49529a27.01159,27.01159,0,0,0,3.23791-4.61646c.95575-1.588,1.50561-4.651,1.50561-8.4036V114.43335H575.87134v25.63292a39.79777,39.79777,0,0,1-.53761,6.48688,16.55422,16.55422,0,0,1-4.15537,8.5974,14.32021,14.32021,0,0,1-8.49911,4.6651,34.90575,34.90575,0,0,1-5.35311.4425H542.76935a37.56064,37.56064,0,0,1-14.51083-2.81193c-5.13256-2.127-9.55749-6.2468-13.1492-12.24175a46.70585,46.70585,0,0,1-5.94127-18.62822c-.52076-5.50617-.7842-10.722-.7842-15.5009,0-4.77493.26344-9.99159.78573-15.504a44.64618,44.64618,0,0,1,5.63034-17.99585c6.80818-11.6596,17.79622-17.55413,32.67925-17.55413h57.662V37.278Z" transform="translate(313.76102 89.29651)"/><path class="cls-3" d="M727.9128,192.90491a150.579,150.579,0,0,1-16.37109-.81811,61.03424,61.03424,0,0,1-13.76807-3.03955,47.08515,47.08515,0,0,1-11.71-6.0791,43.63094,43.63094,0,0,1-9.97412-10.17042,52.60593,52.60593,0,0,1-6.07031-9.93676,65.66572,65.66572,0,0,1-4.3374-12.62476,114.73715,114.73715,0,0,1-2.60157-16.24951q-.8701-9.11865-.86718-20.80884a228.187,228.187,0,0,1,2.49316-36.00513,60.56491,60.56491,0,0,1,10.73291-26.65356,43.92012,43.92012,0,0,1,11.7085-11.45654,55.8231,55.8231,0,0,1,13.55273-6.4292,64.75876,64.75876,0,0,1,14.20313-2.80591q7.15429-.58118,13.65966-.58447h64.18213V69.92469H752.19845q-6.07324,0-11.27637.11719a36.54455,36.54455,0,0,0-9.54053,1.40258,24.84707,24.84707,0,0,0-7.80468,3.85767,21.8012,21.8012,0,0,0-6.07178,7.48169,27.33329,27.33329,0,0,0-2.71,6.89722,56.58016,56.58016,0,0,0-1.41065,7.949q-.43725,4.0935-.65039,7.83252-.21753,3.743-.21679,6.78076,0,6.783.43359,11.45581.43286,4.68018.97559,7.83252a32.56538,32.56538,0,0,0,1.19384,5.02661c.4336,1.24951.79248,2.18482,1.084,2.80591a18.53435,18.53435,0,0,0,6.17871,7.48169,26.1671,26.1671,0,0,0,8.56494,3.74048,52.54875,52.54875,0,0,0,10.40771,1.40332q5.636.23511,11.71.23364h42.06445v40.68164Z" transform="translate(313.76102 89.29651)"/><path class="cls-3" d="M846.08468,192.90491q-6.5061,0-12.36035-.23364a45.64262,45.64262,0,0,1-11.05811-1.75342,29.31962,29.31962,0,0,1-9.54053-4.793,30.19678,30.19678,0,0,1-7.80615-9.35229q-3.68921-6.77856-4.76953-17.18482-1.08765-10.39965-1.08545-27.238V116.21741a126.85447,126.85447,0,0,1,.76026-14.3789,56.802,56.802,0,0,1,2.71-12.27466,27.59438,27.59438,0,0,1,5.85351-9.81958,26.15035,26.15035,0,0,1,9.86719-6.89722,59.76777,59.76777,0,0,1,13.11768-3.624,114.93119,114.93119,0,0,1,15.07031-1.40259q7.91235-.22962,16.15283-.23364,17.56494,0,29.05664,1.16894,11.48951,1.17225,18.43066,7.248a26.27406,26.27406,0,0,1,6.61231,8.65063,51.03248,51.03248,0,0,1,3.79541,10.75489,66.93223,66.93223,0,0,1,1.626,11.33935q.32519,5.73157.32519,10.87207a78.77873,78.77873,0,0,1-.97558,12.27466,16.6499,16.6499,0,0,1-5.96338,10.40405,11.23146,11.23146,0,0,1-5.52832,3.03955,33.56775,33.56775,0,0,1-5.74659.46729H841.96407a19.56008,19.56008,0,0,0,.3252,5.37744,14.85692,14.85692,0,0,0,1.626,4.67651,10.37371,10.37371,0,0,0,8.13134,5.26026,99.69091,99.69091,0,0,0,10.94971.58447h55.727v33.2Zm27.3208-78.09009q4.55274,0,5.74512-2.33789a9.45242,9.45242,0,0,0,1.19238-4.20849,8.90676,8.90676,0,0,0-1.51758-4.91016q-1.51832-2.33349-6.28711-3.50683a56.90546,56.90546,0,0,0-6.07178-.70166q-3.47168-.22962-5.20459-.23365-3.68921,0-8.02294.35083a15.92172,15.92172,0,0,0-6.72071,1.75342,8.33469,8.33469,0,0,0-4.1206,5.49463,25.515,25.515,0,0,0-.4336,8.2998Z" transform="translate(313.76102 89.29651)"/><path class="cls-3" d="M933.25021,56.59827V29.24305h42.498V56.59827Zm0,12.39112h42.498V192.90491h-42.498Z" transform="translate(313.76102 89.29651)"/><path class="cls-3" d="M988.75753,29.24305h42.49805V192.90491H988.75753Z" transform="translate(313.76102 89.29651)"/><path class="cls-3" d="M1044.26632,56.59827V29.24305h42.49805V56.59827Zm0,12.39112h42.49805V192.90491h-42.49805Z" transform="translate(313.76102 89.29651)"/><path class="cls-3" d="M1099.77511,91.20081a48.62441,48.62441,0,0,1,.65039-7.59888,13.86994,13.86994,0,0,1,4.11914-7.59814,16.53975,16.53975,0,0,1,5.63818-3.97485,33.86378,33.86378,0,0,1,6.72217-2.10425,42.00666,42.00666,0,0,1,6.8291-.81812q3.35963-.11535,5.96338-.11718H1169.594a113.22159,113.22159,0,0,1,19.8413,1.75341,39.9043,39.9043,0,0,1,18.75586,9.23511,38.49516,38.49516,0,0,1,7.58936,8.885,43.58271,43.58271,0,0,1,4.33594,9.58594,47.565,47.565,0,0,1,1.95117,9.58594q.43286,4.67907.43359,8.65063v76.21948h-42.498V130.01185a73.11606,73.11606,0,0,0-.86866-11.80664,22.11619,22.11619,0,0,0-3.90234-9.46949,16.27233,16.27233,0,0,0-6.939-5.72827,27.38346,27.38346,0,0,0-10.62451-1.75342h-7.58935a14.033,14.033,0,0,0-2.92676.35083,6.328,6.328,0,0,0-2.92676,1.51978,5.15775,5.15775,0,0,0-1.84424,3.39038q-.10986,1.75342-.10839,3.624v82.76587h-42.498Z" transform="translate(313.76102 89.29651)"/><path class="cls-3" d="M1240.92892,205.06238h51.17285q3.46509,0,7.91455-.35009a13.88926,13.88926,0,0,0,7.69775-2.9231,15.82236,15.82236,0,0,0,4.98633-8.88428h-36.64453q-4.55274,0-9.21533-.35083a33.44407,33.44407,0,0,1-9.10694-1.98706,34.3145,34.3145,0,0,1-8.56494-4.67651,27.89205,27.89205,0,0,1-7.37256-8.65064,56.9842,56.9842,0,0,1-6.8291-19.28833,156.25519,156.25519,0,0,1-2.061-27.47168q0-9.11865.65185-16.01587a80.32151,80.32151,0,0,1,2.05957-12.39111,49.09681,49.09681,0,0,1,3.57715-9.82031,44.75481,44.75481,0,0,1,5.42139-8.29981,36.8264,36.8264,0,0,1,14.74365-11.573q8.23975-3.38709,21.68408-3.39038h47.269a69.96662,69.96662,0,0,1,10.40771.81811,18.29713,18.29713,0,0,1,9.75733,4.793,17.712,17.712,0,0,1,5.52978,9.35229,44.22507,44.22507,0,0,1,1.19238,9.3523v85.80542a128.67111,128.67111,0,0,1-1.73437,22.21142,39.841,39.841,0,0,1-7.37256,17.30127,35.28067,35.28067,0,0,1-17.02148,12.62549,70.61932,70.61932,0,0,1-23.74366,3.74048h-64.39892Zm71.77148-93.05346a16.186,16.186,0,0,0-.542-4.44214,7.01933,7.01933,0,0,0-2.71-3.50684,9.80258,9.80258,0,0,0-3.36035-1.51977,15.93206,15.93206,0,0,0-3.36182-.35083h-4.76953a40.3113,40.3113,0,0,0-9.10693,1.05249,13.964,13.964,0,0,0-8.02295,5.72827q-1.52052,1.87317-3.03662,6.89722-1.51832,5.02953-1.51758,16.24877a60.77211,60.77211,0,0,0,1.19238,13.32715,18.61258,18.61258,0,0,0,3.57861,7.949q4.11549,5.146,9.54053,5.72827a93.14829,93.14829,0,0,0,9.97412.58447h12.14209Z" transform="translate(313.76102 89.29651)"/><path class="cls-2" d="M616.40794,168.35656q0,8.18745-2.67579,12.62541a32.78169,32.78169,0,0,1-4.6026,6.31271q-6.21007,5.6113-16.05474,5.6113H522.21923a65.14438,65.14438,0,0,1-19.79962-3.39016,45.074,45.074,0,0,1-17.87434-10.40428,41.36291,41.36291,0,0,1-9.73975-14.14514,88.81979,88.81979,0,0,1-5.35158-17.3015,129.28694,129.28694,0,0,1-2.35567-18.23671q-.53532-9.23252-.53455-17.41762,0-9.81976.64176-19.99024a127.409,127.409,0,0,1,2.783-19.75644,71.822,71.822,0,0,1,6.4222-17.76911A43.94449,43.94449,0,0,1,487.97,40.46654a38.76526,38.76526,0,0,1,11.13049-6.42961A73.81414,73.81414,0,0,1,510.447,30.76367a70.584,70.584,0,0,1,9.52532-1.28592q4.1745-.22948,5.67322-.2338h87.33765V68.05541h-65.504q-17.98,0-25.9017,13.56064a36.39262,36.39262,0,0,0-4.60261,14.72965q-.75128,7.95092-.749,14.72965,0,6.78347.749,14.72966a38.03067,38.03067,0,0,0,4.817,15.19648q4.06422,6.78462,9.4181,9.00145a29.78765,29.78765,0,0,0,11.55935,2.22114h14.55679a27.17179,27.17179,0,0,0,4.17374-.35071,6.67768,6.67768,0,0,0,3.96084-2.22114A8.50808,8.50808,0,0,0,567.602,145.21a31.4569,31.4569,0,0,0,.42733-5.14369v-33.667h48.37864Z" transform="translate(313.76102 89.29651)"/><path class="cls-2" d="M364.25115,140.30007a5.86561,5.86561,0,0,0,1.498,2.80565,1.52647,1.52647,0,0,0,2.56857,0,5.90467,5.90467,0,0,0,1.49949-2.80565L404.92254,29.244H456.726L404.70811,168.35656A56.37077,56.37077,0,0,1,399.8926,178.527a33.85111,33.85111,0,0,1-7.17117,8.417,31.87145,31.87145,0,0,1-10.48873,5.7282,55.94055,55.94055,0,0,1-30.39709,0,33.06776,33.06776,0,0,1-10.59595-5.7282,31.00154,31.00154,0,0,1-7.17117-8.417,61.16732,61.16732,0,0,1-4.70982-10.17047L277.34083,29.244h51.80341Z" transform="translate(313.76102 89.29651)"/></svg>